<svg width="188" height="42" viewBox="0 0 188 42" fill="none" xmlns="http://www.w3.org/2000/svg">
<path d="M16.6585 41H15.3818C12.0654 41 10.0701 40.9994 8.5459 40.7159L17.3669 29.0344L16.6585 41Z" fill="#087448"/>
<path d="M31.2482 40.7514C29.7502 40.9988 27.7875 41 24.6183 41H23.109L22.397 29.0309L31.2482 40.7514Z" fill="#087448"/>
<path d="M39.6714 32.6707C39.607 32.9772 39.5312 33.2654 39.4388 33.5425C38.8336 35.3566 37.7711 36.9521 36.3866 38.1981L26.4399 27.0439L39.6714 32.6707Z" fill="#087448"/>
<path d="M3.4854 38.0792C2.16393 36.8511 1.14735 35.3 0.561036 33.5426C0.459507 33.2382 0.375209 32.921 0.307129 32.5803L13.3239 27.0458L3.4854 38.0792Z" fill="#087448"/>
<path d="M40 25.6183C40 26.7428 39.9968 27.7154 39.9858 28.5692L28.1729 24.006H40V25.6183Z" fill="#087448"/>
<path d="M11.5962 24.006L0.0106534 28.4805C0.000706105 27.6481 0 26.704 0 25.6183V24.006H11.5962Z" fill="#087448"/>
<path d="M24.6183 1C28.7807 1 30.862 1.00055 32.5426 1.56108C35.7979 2.64713 38.3529 5.20208 39.4389 8.45739C39.9994 10.138 40 12.2193 40 16.3817V21.016H27.5089L36.5181 17.1861L33.8459 15.4123L25.1048 18.7876L29.2081 13.358L26.2571 12.5501L21.7259 17.6282L21.3885 11.9091H18.3825L18.0398 17.6282L13.5121 12.5501L10.5629 13.358L14.6609 18.7859L5.92507 15.4123L3.25284 17.1861L12.2603 21.016H0V16.3817C0 12.2193 0.000553668 10.138 0.56108 8.45739C1.64713 5.20208 4.20208 2.64713 7.45739 1.56108C9.13798 1.00055 11.2193 1 15.3817 1H24.6183Z" fill="#087448"/>
<path d="M65.4801 33.68H59.7701V29.2H65.7601C66.8335 29.2 67.6368 28.92 68.1701 28.36C68.7101 27.8 68.9801 27.0067 68.9801 25.98C68.9801 24.9467 68.7101 24.1567 68.1701 23.61C67.6368 23.0633 66.8335 22.79 65.7601 22.79H59.7701V19.32H65.4801C67.2535 19.32 68.8268 19.5367 70.2001 19.97C71.5801 20.4033 72.6668 21.0967 73.4601 22.05C74.2535 23.01 74.6501 24.3067 74.6501 25.94V26.43C74.6501 27.9433 74.3001 29.2433 73.6001 30.33C72.9001 31.4167 71.8735 32.2467 70.5201 32.82C69.1668 33.3933 67.4868 33.68 65.4801 33.68ZM60.4701 33.68H54.8701V7.73999H60.4701V33.68ZM64.4601 21.88H59.7701V18.45H64.8101C65.9101 18.45 66.7035 18.17 67.1901 17.61C67.6835 17.05 67.9301 16.3033 67.9301 15.37C67.9301 14.39 67.6835 13.62 67.1901 13.06C66.7035 12.5 65.9101 12.22 64.8101 12.22H59.7701V7.73999H64.4601C67.4001 7.73999 69.6568 8.35666 71.2301 9.58999C72.8101 10.83 73.6001 12.5933 73.6001 14.88V15.4C73.6001 16.9867 73.1968 18.26 72.3901 19.22C71.5835 20.1733 70.4968 20.8567 69.1301 21.27C67.7701 21.6767 66.2134 21.88 64.4601 21.88ZM92.8801 33.5H88.4401V27.83H87.4901V21.67C87.4901 20.69 87.2568 19.9533 86.7901 19.46C86.3235 18.9733 85.5768 18.73 84.5501 18.73C84.0368 18.73 83.3601 18.74 82.5201 18.76C81.6801 18.7867 80.8168 18.8233 79.9301 18.87C79.0435 18.9167 78.2401 18.9633 77.5201 19.01V14.28C78.0535 14.2333 78.6835 14.1867 79.4101 14.14C80.1301 14.0933 80.8768 14.06 81.6501 14.04C82.4168 14.0133 83.1401 14 83.8201 14C85.7801 14 87.4301 14.28 88.7701 14.84C90.1101 15.4 91.1301 16.2467 91.8301 17.38C92.5301 18.5133 92.8801 19.9667 92.8801 21.74V33.5ZM82.3101 33.99C80.9368 33.99 79.7301 33.7433 78.6901 33.25C77.6501 32.7633 76.8401 32.06 76.2601 31.14C75.6735 30.2133 75.3801 29.11 75.3801 27.83C75.3801 26.43 75.7434 25.28 76.4701 24.38C77.1901 23.48 78.2034 22.8167 79.5101 22.39C80.8168 21.9567 82.3235 21.74 84.0301 21.74H88.1201V24.85H83.9901C83.0101 24.85 82.2568 25.09 81.7301 25.57C81.2101 26.05 80.9501 26.7 80.9501 27.52C80.9501 28.2867 81.2101 28.91 81.7301 29.39C82.2568 29.87 83.0101 30.11 83.9901 30.11C84.6235 30.11 85.1901 29.9967 85.6901 29.77C86.1901 29.55 86.6035 29.17 86.9301 28.63C87.2568 28.0967 87.4435 27.35 87.4901 26.39L88.8201 27.79C88.7068 29.1233 88.3868 30.2467 87.8601 31.16C87.3335 32.0667 86.6101 32.7633 85.6901 33.25C84.7701 33.7433 83.6435 33.99 82.3101 33.99ZM101.32 33.5H95.7201V14.32H100.16V22.54H99.8501C99.8501 20.58 100.1 18.9467 100.6 17.64C101.1 16.3333 101.863 15.3533 102.89 14.7C103.917 14.0467 105.167 13.72 106.64 13.72H106.88C109.12 13.72 110.83 14.45 112.01 15.91C113.19 17.37 113.78 19.58 113.78 22.54V33.5H108.18V22.23C108.18 21.2033 107.877 20.3633 107.27 19.71C106.663 19.0567 105.847 18.73 104.82 18.73C103.767 18.73 102.92 19.0633 102.28 19.73C101.64 20.39 101.32 21.2567 101.32 22.33V33.5ZM128.02 33.75H125.33C123.39 33.75 121.827 33.51 120.64 33.03C119.447 32.55 118.577 31.7433 118.03 30.61C117.483 29.4767 117.21 27.9433 117.21 26.01V9.13999H122.42V26.22C122.42 27.1333 122.66 27.8267 123.14 28.3C123.62 28.78 124.303 29.02 125.19 29.02H128.02V33.75ZM128.02 18.41H114.3V14.32H128.02V18.41ZM145.84 33.5H141.39V27.83H140.45V21.67C140.45 20.69 140.217 19.9533 139.75 19.46C139.283 18.9733 138.537 18.73 137.51 18.73C136.997 18.73 136.32 18.74 135.48 18.76C134.64 18.7867 133.777 18.8233 132.89 18.87C132.003 18.9167 131.197 18.9633 130.47 19.01V14.28C131.01 14.2333 131.64 14.1867 132.36 14.14C133.087 14.0933 133.833 14.06 134.6 14.04C135.373 14.0133 136.097 14 136.77 14C138.73 14 140.38 14.28 141.72 14.84C143.067 15.4 144.09 16.2467 144.79 17.38C145.49 18.5133 145.84 19.9667 145.84 21.74V33.5ZM135.27 33.99C133.89 33.99 132.68 33.7433 131.64 33.25C130.607 32.7633 129.797 32.06 129.21 31.14C128.63 30.2133 128.34 29.11 128.34 27.83C128.34 26.43 128.7 25.28 129.42 24.38C130.147 23.48 131.163 22.8167 132.47 22.39C133.777 21.9567 135.28 21.74 136.98 21.74H141.08V24.85H136.95C135.97 24.85 135.217 25.09 134.69 25.57C134.163 26.05 133.9 26.7 133.9 27.52C133.9 28.2867 134.163 28.91 134.69 29.39C135.217 29.87 135.97 30.11 136.95 30.11C137.577 30.11 138.14 29.9967 138.64 29.77C139.147 29.55 139.563 29.17 139.89 28.63C140.217 28.0967 140.403 27.35 140.45 26.39L141.78 27.79C141.66 29.1233 141.337 30.2467 140.81 31.16C140.29 32.0667 139.567 32.7633 138.64 33.25C137.72 33.7433 136.597 33.99 135.27 33.99ZM156.58 34.13C155.227 34.13 153.997 33.8833 152.89 33.39C151.783 32.9033 150.82 32.2233 150 31.35C149.187 30.4767 148.563 29.4433 148.13 28.25C147.697 27.0567 147.48 25.7733 147.48 24.4V23.59C147.48 22.2167 147.683 20.9333 148.09 19.74C148.503 18.5533 149.1 17.51 149.88 16.61C150.66 15.71 151.6 15.01 152.7 14.51C153.793 14.01 155.017 13.76 156.37 13.76C157.91 13.76 159.24 14.0933 160.36 14.76C161.48 15.42 162.357 16.4 162.99 17.7C163.617 18.9933 163.967 20.5833 164.04 22.47L162.57 21.11V7.94999H168.2V33.5H163.76V25.55H164.53C164.457 27.3767 164.077 28.93 163.39 30.21C162.703 31.49 161.777 32.4633 160.61 33.13C159.443 33.7967 158.1 34.13 156.58 34.13ZM157.98 29.44C158.847 29.44 159.633 29.2467 160.34 28.86C161.053 28.48 161.627 27.9133 162.06 27.16C162.493 26.4133 162.71 25.5167 162.71 24.47V23.17C162.71 22.1433 162.487 21.28 162.04 20.58C161.6 19.88 161.017 19.3433 160.29 18.97C159.57 18.5967 158.79 18.41 157.95 18.41C157.017 18.41 156.18 18.65 155.44 19.13C154.707 19.61 154.13 20.2633 153.71 21.09C153.29 21.9167 153.08 22.88 153.08 23.98C153.08 25.1 153.29 26.0667 153.71 26.88C154.13 27.7 154.713 28.33 155.46 28.77C156.207 29.2167 157.047 29.44 157.98 29.44ZM178.63 34.09C175.903 34.09 173.77 33.53 172.23 32.41C170.69 31.29 169.873 29.7167 169.78 27.69H174.75C174.843 28.2967 175.21 28.84 175.85 29.32C176.49 29.8 177.453 30.04 178.74 30.04C179.72 30.04 180.53 29.87 181.17 29.53C181.81 29.19 182.13 28.7033 182.13 28.07C182.13 27.51 181.887 27.0633 181.4 26.73C180.907 26.39 180.03 26.15 178.77 26.01L177.27 25.87C174.957 25.6367 173.223 24.9967 172.07 23.95C170.917 22.8967 170.34 21.5533 170.34 19.92C170.34 18.5667 170.677 17.4333 171.35 16.52C172.03 15.6133 172.97 14.9267 174.17 14.46C175.37 13.9933 176.74 13.76 178.28 13.76C180.753 13.76 182.75 14.3033 184.27 15.39C185.783 16.47 186.577 18.0367 186.65 20.09H181.68C181.587 19.4633 181.26 18.9333 180.7 18.5C180.14 18.0667 179.31 17.85 178.21 17.85C177.35 17.85 176.663 18.0133 176.15 18.34C175.637 18.6667 175.38 19.11 175.38 19.67C175.38 20.21 175.6 20.62 176.04 20.9C176.487 21.18 177.21 21.3767 178.21 21.49L179.72 21.63C182.073 21.89 183.903 22.5433 185.21 23.59C186.517 24.6433 187.17 26.0567 187.17 27.83C187.17 29.11 186.82 30.2233 186.12 31.17C185.42 32.1167 184.43 32.84 183.15 33.34C181.863 33.84 180.357 34.09 178.63 34.09Z" fill="#242827"/>
</svg>
