<svg width="747" height="418" viewBox="0 0 747 418" fill="none" xmlns="http://www.w3.org/2000/svg">
<g clip-path="url(#clip0_3151_1236)">
<rect width="842" height="522" rx="108" fill="#3ACD85"/>
<path d="M547.488 -376.366C648.293 -376.366 698.697 -376.346 739.398 -355.61C818.234 -315.434 880.111 -220.918 906.411 -100.494C919.985 -38.3239 920 38.6706 920 192.651V364.088H617.492L835.676 222.408L770.961 156.79L559.27 281.652L658.643 80.7946L587.176 50.9079L477.441 238.763L469.269 27.1953H396.471L388.171 238.763L278.52 50.9079L207.097 80.7946L306.341 281.589L94.7783 156.79L30.0627 222.408L248.204 364.088L-35.126 342.5L-35.126 201.5C-35.126 47.5199 -33.5747 -40.8298 -20 -103C6.3018 -223.424 53.0512 -315.434 131.888 -355.61C172.588 -376.346 222.993 -376.366 323.798 -376.366H547.488Z" fill="#08462E"/>
</g>
<defs>
<clipPath id="clip0_3151_1236">
<rect width="842" height="522" rx="108" fill="white"/>
</clipPath>
</defs>
</svg>
